<?xml version="1.0" standalone="no"?>
<!DOCTYPE svg PUBLIC "-//W3C//DTD SVG 20010904//EN"
 "http://www.w3.org/TR/2001/REC-SVG-20010904/DTD/svg10.dtd">
<svg version="1.0" xmlns="http://www.w3.org/2000/svg"
 width="700.000000pt" height="700.000000pt" viewBox="0 0 700.000000 700.000000"
 preserveAspectRatio="xMidYMid meet">
<metadata>
Created by potrace 1.11, written by Peter Selinger 2001-2013
</metadata>
<g transform="translate(0.000000,700.000000) scale(0.100000,-0.100000)"
fill="#000000" stroke="none">
<path d="M3398 6245 c-2 -2 -37 -5 -78 -9 -41 -3 -86 -8 -100 -10 -14 -2 -50
-7 -80 -10 -30 -4 -83 -14 -116 -21 -34 -8 -73 -16 -85 -19 -299 -63 -668
-238 -944 -446 -135 -102 -143 -108 -275 -241 -225 -226 -402 -490 -525 -784
-40 -95 -104 -287 -119 -357 -3 -13 -10 -41 -15 -63 -26 -111 -49 -288 -54
-429 l-2 -68 -180 -88 c-176 -86 -359 -174 -560 -270 -55 -26 -137 -66 -182
-88 l-83 -40 163 -52 c89 -28 196 -62 237 -75 79 -25 571 -171 678 -202 l63
-18 48 -115 c127 -305 292 -556 521 -791 l88 -90 -77 -77 c-124 -126 -194
-291 -184 -437 20 -302 287 -557 683 -654 123 -30 207 -38 339 -35 174 4 219
12 381 60 74 23 240 97 273 124 141 110 217 193 262 286 15 30 30 54 33 54 4
1 61 3 127 5 66 3 140 7 165 11 106 14 103 15 130 -46 113 -250 421 -444 775
-487 109 -13 398 -4 426 13 4 2 24 6 45 10 22 3 47 10 57 15 9 5 17 8 17 5 0
-2 26 5 57 15 158 56 288 134 386 233 174 176 225 375 153 601 -25 82 -122
211 -222 295 -38 32 -185 120 -201 120 -20 0 -15 12 20 51 18 20 51 58 72 85
22 27 43 51 46 54 17 15 134 189 182 271 58 99 145 277 166 341 13 38 47 88
60 88 11 0 578 316 681 380 8 5 35 20 60 33 107 58 273 163 272 172 -1 6 -34
24 -74 41 -40 17 -93 40 -118 51 -25 12 -135 60 -245 108 -110 47 -218 95
-240 105 -37 17 -129 58 -201 90 -30 13 -31 15 -43 119 -14 116 -49 290 -79
391 -133 450 -414 883 -767 1181 -22 19 -42 36 -45 39 -56 56 -293 210 -440
287 -141 73 -337 154 -430 178 -8 2 -50 13 -93 25 -81 21 -245 55 -312 64
-120 15 -175 19 -327 21 -93 1 -169 1 -170 0z"/>
</g>
</svg>
